<svg xmlns="http://www.w3.org/2000/svg" xmlns:xlink="http://www.w3.org/1999/xlink" viewBox="95 795 1690 890" preserveAspectRatio="xMidYMid meet" version="1.0"><defs/><g fill="#ffffff" fill-opacity="1"><g transform="translate(805.81814, 883.472852)"><g><path d="M 38.984375 -59.5625 L 38.984375 0 L 24.109375 0 L 24.109375 -59.5625 L 1.15625 -59.5625 L 1.15625 -71.0625 L 61.984375 -71.0625 L 61.984375 -59.5625 Z M 38.984375 -59.5625 "/></g></g></g><g fill="#ffffff" fill-opacity="1"><g transform="translate(897.608377, 883.472852)"><g><path d="M 52.75 0 L 52.75 -30.453125 L 21.78125 -30.453125 L 21.78125 0 L 6.90625 0 L 6.90625 -71.0625 L 21.78125 -71.0625 L 21.78125 -42.765625 L 52.75 -42.765625 L 52.75 -71.0625 L 67.625 -71.0625 L 67.625 0 Z M 52.75 0 "/></g></g></g><g fill="#ffffff" fill-opacity="1"><g transform="translate(1000.894982, 883.472852)"><g><path d="M 6.90625 0 L 6.90625 -71.0625 L 62.78125 -71.0625 L 62.78125 -59.5625 L 21.78125 -59.5625 L 21.78125 -41.703125 L 59.703125 -41.703125 L 59.703125 -30.203125 L 21.78125 -30.203125 L 21.78125 -11.5 L 64.859375 -11.5 L 64.859375 0 Z M 6.90625 0 "/></g></g></g><g fill="#000000" fill-opacity="0.302"><g transform="translate(186.158009, 1358.163915)"><g><path d="M 495.984375 -392.796875 C 497.929688 -392.796875 499.738281 -392.796875 501.40625 -392.796875 L 501.40625 -388.625 C 488.363281 -388.070312 476.015625 -385.019531 464.359375 -379.46875 C 452.710938 -373.925781 442.863281 -367.335938 434.8125 -359.703125 C 426.769531 -352.078125 419.285156 -342.859375 412.359375 -332.046875 C 401.265625 -314.847656 391.832031 -295.148438 384.0625 -272.953125 L 304.171875 -41.1875 C 298.617188 -23.71875 295.566406 -8.320312 295.015625 5 L 291.265625 5 L 206.390625 -232.59375 L 139.390625 -22.890625 C 129.410156 8.460938 113.320312 32.875 91.125 50.34375 C 75.039062 63.382812 57.007812 69.90625 37.03125 69.90625 C 30.101562 69.90625 22.753906 69.070312 14.984375 67.40625 L 15.8125 63.25 C 19.976562 64.082031 24.765625 64.5 30.171875 64.5 C 35.578125 64.5 42.785156 62.832031 51.796875 59.5 C 60.816406 56.175781 69.765625 50.210938 78.640625 41.609375 C 96.671875 24.128906 110.539062 2.210938 120.25 -24.140625 L 36.203125 -261.71875 C 32.878906 -270.039062 27.75 -276.351562 20.8125 -280.65625 C 13.875 -284.957031 6.800781 -287.109375 -0.40625 -287.109375 L -3.734375 -287.109375 L -3.734375 -291.265625 L 88.640625 -291.265625 L 88.640625 -287.109375 L 84.890625 -287.109375 C 79.066406 -287.109375 74.695312 -285.234375 71.78125 -281.484375 C 68.863281 -277.742188 67.40625 -274.207031 67.40625 -270.875 C 67.40625 -267.550781 67.820312 -264.5 68.65625 -261.71875 L 131.90625 -59.078125 L 209.296875 -297.921875 L 213.046875 -297.5 L 295.4375 -66.984375 L 357.015625 -272.953125 C 364.222656 -297.085938 375.316406 -318.863281 390.296875 -338.28125 C 418.035156 -374.625 453.265625 -392.796875 495.984375 -392.796875 Z M 495.984375 -392.796875 "/></g></g></g><g fill="#000000" fill-opacity="0.302"><g transform="translate(608.082683, 1358.163915)"><g><path d="M 133.984375 -4.15625 L 139.390625 -4.15625 L 139.390625 0 L 48.265625 0 L 48.265625 -4.15625 L 53.6875 -4.15625 C 60.894531 -4.15625 67.132812 -6.722656 72.40625 -11.859375 C 77.675781 -16.992188 80.3125 -23.164062 80.3125 -30.375 L 80.3125 -280.03125 L 35.796875 -277.53125 C 7.773438 -275.863281 -6.234375 -265.738281 -6.234375 -247.15625 C -6.234375 -239.664062 -3.804688 -233.285156 1.046875 -228.015625 C 5.898438 -222.742188 13.597656 -219.832031 24.140625 -219.28125 L 24.140625 -216.78125 C 20.253906 -215.945312 16.367188 -215.53125 12.484375 -215.53125 C 0.285156 -215.53125 -8.863281 -220.382812 -14.96875 -230.09375 C -18.582031 -235.644531 -20.390625 -241.75 -20.390625 -248.40625 C -20.390625 -271.988281 -2.492188 -285.71875 33.296875 -289.59375 C 33.566406 -289.59375 47.363281 -290.492188 74.6875 -292.296875 C 102.019531 -294.109375 123.585938 -296.539062 139.390625 -299.59375 L 140.234375 -295.421875 C 128.304688 -293.484375 119.84375 -289.460938 114.84375 -283.359375 C 109.851562 -277.253906 107.359375 -268.796875 107.359375 -257.984375 L 107.359375 -30.375 C 107.640625 -23.164062 110.34375 -16.992188 115.46875 -11.859375 C 120.601562 -6.722656 126.773438 -4.15625 133.984375 -4.15625 Z M 133.984375 -4.15625 "/></g></g></g><g fill="#000000" fill-opacity="0.302"><g transform="translate(788.25369, 1358.163915)"><g><path d="M -24.125 -208.46875 C -32.726562 -218.726562 -37.03125 -228.921875 -37.03125 -239.046875 C -37.03125 -249.171875 -34.671875 -257.90625 -29.953125 -265.25 C -25.234375 -272.601562 -17.601562 -278.847656 -7.0625 -283.984375 C 3.476562 -289.117188 15.40625 -291.6875 28.71875 -291.6875 L 199.3125 -291.6875 C 207.914062 -291.6875 217.414062 -292.515625 227.8125 -294.171875 C 238.21875 -295.835938 245.5 -297.503906 249.65625 -299.171875 L 249.65625 -246.75 L 245.5 -247.15625 L 245.5 -254.234375 C 245.5 -260.890625 243.140625 -266.644531 238.421875 -271.5 C 233.710938 -276.351562 228.164062 -278.921875 221.78125 -279.203125 L 142.71875 -279.203125 L 142.71875 -29.953125 C 143 -19.972656 147.441406 -12.484375 156.046875 -7.484375 C 160.203125 -5.265625 164.640625 -4.15625 169.359375 -4.15625 L 174.765625 -4.15625 L 174.765625 0 L 83.640625 0 L 83.640625 -4.15625 L 89.046875 -4.15625 C 96.265625 -4.15625 102.4375 -6.648438 107.5625 -11.640625 C 112.695312 -16.640625 115.40625 -22.609375 115.6875 -29.546875 L 115.6875 -279.203125 L 28.71875 -279.203125 C 6.519531 -279.203125 -9.566406 -272.128906 -19.546875 -257.984375 C -24.816406 -250.765625 -27.453125 -243.203125 -27.453125 -235.296875 C -27.453125 -227.390625 -25.234375 -219.140625 -20.796875 -210.546875 Z M -24.125 -208.46875 "/></g></g></g><g fill="#000000" fill-opacity="0.302"><g transform="translate(1035.000466, 1358.163915)"><g><path d="M 331.625 -146.046875 C 331.625 -98.335938 318.796875 -61.097656 293.140625 -34.328125 C 267.484375 -7.554688 231.210938 5.828125 184.328125 5.828125 C 152.703125 5.828125 124.195312 -0.828125 98.8125 -14.140625 C 73.4375 -27.460938 53.742188 -45.632812 39.734375 -68.65625 C 25.722656 -91.675781 18.71875 -117.398438 18.71875 -145.828125 C 18.71875 -174.265625 25.648438 -199.992188 39.515625 -223.015625 C 53.390625 -246.046875 72.53125 -264.148438 96.9375 -277.328125 C 121.351562 -290.503906 148.539062 -297.09375 178.5 -297.09375 C 197.363281 -297.09375 216.570312 -294.523438 236.125 -289.390625 C 255.6875 -284.265625 271.988281 -277.398438 285.03125 -268.796875 L 293.34375 -210.125 L 289.59375 -210.125 C 283.769531 -233.425781 270.316406 -251.664062 249.234375 -264.84375 C 228.148438 -278.019531 204.710938 -284.609375 178.921875 -284.609375 C 142.023438 -284.609375 111.300781 -271.5 86.75 -245.28125 C 62.207031 -219.070312 49.9375 -186.132812 49.9375 -146.46875 C 49.9375 -106.800781 62.625 -73.582031 88 -46.8125 C 113.382812 -20.039062 146.601562 -6.65625 187.65625 -6.65625 C 228.707031 -6.65625 262.203125 -19.96875 288.140625 -46.59375 C 314.078125 -73.226562 327.046875 -109.707031 327.046875 -156.03125 L 331.203125 -156.03125 C 331.484375 -152.707031 331.625 -149.378906 331.625 -146.046875 Z M 331.625 -146.046875 "/></g></g></g><g fill="#000000" fill-opacity="0.302"><g transform="translate(1372.457042, 1358.163915)"><g><path d="M 303.328125 -4.15625 L 308.328125 -4.15625 L 308.328125 0 L 217.609375 0 L 217.609375 -4.15625 L 223.03125 -4.15625 C 229.957031 -4.15625 235.988281 -6.582031 241.125 -11.4375 C 246.257812 -16.289062 249.101562 -22.328125 249.65625 -29.546875 L 249.65625 -137.734375 L 88.625 -137.734375 L 88.625 -29.125 C 88.625 9.707031 79.191406 35.78125 60.328125 49.09375 C 51.734375 55.195312 40.640625 59.773438 27.046875 62.828125 L 24.96875 59.078125 C 37.445312 52.421875 46.664062 42.15625 52.625 28.28125 C 58.59375 14.414062 61.578125 -4.71875 61.578125 -29.125 L 61.578125 -261.3125 C 61.578125 -268.519531 58.941406 -274.617188 53.671875 -279.609375 C 48.398438 -284.609375 42.160156 -287.109375 34.953125 -287.109375 L 29.953125 -287.109375 L 29.953125 -291.265625 L 120.671875 -291.265625 L 120.671875 -287.109375 L 115.265625 -287.109375 C 108.046875 -287.109375 101.867188 -284.609375 96.734375 -279.609375 C 91.609375 -274.617188 88.90625 -268.519531 88.625 -261.3125 L 88.625 -150.203125 L 249.65625 -150.203125 L 249.65625 -253.8125 C 249.9375 -289.320312 257.84375 -314.007812 273.375 -327.875 C 282.800781 -336.195312 295.5625 -342.164062 311.65625 -345.78125 L 313.734375 -342.03125 C 301.253906 -335.375 291.960938 -325.109375 285.859375 -311.234375 C 279.753906 -297.367188 276.703125 -278.226562 276.703125 -253.8125 L 276.703125 -30.375 C 276.703125 -23.164062 279.265625 -16.992188 284.390625 -11.859375 C 289.523438 -6.722656 295.835938 -4.15625 303.328125 -4.15625 Z M 303.328125 -4.15625 "/></g></g></g><g fill="#000000" fill-opacity="0.502"><g transform="translate(180.829714, 1354.001019)"><g><path d="M 495.984375 -392.796875 C 497.929688 -392.796875 499.738281 -392.796875 501.40625 -392.796875 L 501.40625 -388.625 C 488.363281 -388.070312 476.015625 -385.019531 464.359375 -379.46875 C 452.710938 -373.925781 442.863281 -367.335938 434.8125 -359.703125 C 426.769531 -352.078125 419.285156 -342.859375 412.359375 -332.046875 C 401.265625 -314.847656 391.832031 -295.148438 384.0625 -272.953125 L 304.171875 -41.1875 C 298.617188 -23.71875 295.566406 -8.320312 295.015625 5 L 291.265625 5 L 206.390625 -232.59375 L 139.390625 -22.890625 C 129.410156 8.460938 113.320312 32.875 91.125 50.34375 C 75.039062 63.382812 57.007812 69.90625 37.03125 69.90625 C 30.101562 69.90625 22.753906 69.070312 14.984375 67.40625 L 15.8125 63.25 C 19.976562 64.082031 24.765625 64.5 30.171875 64.5 C 35.578125 64.5 42.785156 62.832031 51.796875 59.5 C 60.816406 56.175781 69.765625 50.210938 78.640625 41.609375 C 96.671875 24.128906 110.539062 2.210938 120.25 -24.140625 L 36.203125 -261.71875 C 32.878906 -270.039062 27.75 -276.351562 20.8125 -280.65625 C 13.875 -284.957031 6.800781 -287.109375 -0.40625 -287.109375 L -3.734375 -287.109375 L -3.734375 -291.265625 L 88.640625 -291.265625 L 88.640625 -287.109375 L 84.890625 -287.109375 C 79.066406 -287.109375 74.695312 -285.234375 71.78125 -281.484375 C 68.863281 -277.742188 67.40625 -274.207031 67.40625 -270.875 C 67.40625 -267.550781 67.820312 -264.5 68.65625 -261.71875 L 131.90625 -59.078125 L 209.296875 -297.921875 L 213.046875 -297.5 L 295.4375 -66.984375 L 357.015625 -272.953125 C 364.222656 -297.085938 375.316406 -318.863281 390.296875 -338.28125 C 418.035156 -374.625 453.265625 -392.796875 495.984375 -392.796875 Z M 495.984375 -392.796875 "/></g></g></g><g fill="#000000" fill-opacity="0.502"><g transform="translate(602.754388, 1354.001019)"><g><path d="M 133.984375 -4.15625 L 139.390625 -4.15625 L 139.390625 0 L 48.265625 0 L 48.265625 -4.15625 L 53.6875 -4.15625 C 60.894531 -4.15625 67.132812 -6.722656 72.40625 -11.859375 C 77.675781 -16.992188 80.3125 -23.164062 80.3125 -30.375 L 80.3125 -280.03125 L 35.796875 -277.53125 C 7.773438 -275.863281 -6.234375 -265.738281 -6.234375 -247.15625 C -6.234375 -239.664062 -3.804688 -233.285156 1.046875 -228.015625 C 5.898438 -222.742188 13.597656 -219.832031 24.140625 -219.28125 L 24.140625 -216.78125 C 20.253906 -215.945312 16.367188 -215.53125 12.484375 -215.53125 C 0.285156 -215.53125 -8.863281 -220.382812 -14.96875 -230.09375 C -18.582031 -235.644531 -20.390625 -241.75 -20.390625 -248.40625 C -20.390625 -271.988281 -2.492188 -285.71875 33.296875 -289.59375 C 33.566406 -289.59375 47.363281 -290.492188 74.6875 -292.296875 C 102.019531 -294.109375 123.585938 -296.539062 139.390625 -299.59375 L 140.234375 -295.421875 C 128.304688 -293.484375 119.84375 -289.460938 114.84375 -283.359375 C 109.851562 -277.253906 107.359375 -268.796875 107.359375 -257.984375 L 107.359375 -30.375 C 107.640625 -23.164062 110.34375 -16.992188 115.46875 -11.859375 C 120.601562 -6.722656 126.773438 -4.15625 133.984375 -4.15625 Z M 133.984375 -4.15625 "/></g></g></g><g fill="#000000" fill-opacity="0.502"><g transform="translate(782.925395, 1354.001019)"><g><path d="M -24.125 -208.46875 C -32.726562 -218.726562 -37.03125 -228.921875 -37.03125 -239.046875 C -37.03125 -249.171875 -34.671875 -257.90625 -29.953125 -265.25 C -25.234375 -272.601562 -17.601562 -278.847656 -7.0625 -283.984375 C 3.476562 -289.117188 15.40625 -291.6875 28.71875 -291.6875 L 199.3125 -291.6875 C 207.914062 -291.6875 217.414062 -292.515625 227.8125 -294.171875 C 238.21875 -295.835938 245.5 -297.503906 249.65625 -299.171875 L 249.65625 -246.75 L 245.5 -247.15625 L 245.5 -254.234375 C 245.5 -260.890625 243.140625 -266.644531 238.421875 -271.5 C 233.710938 -276.351562 228.164062 -278.921875 221.78125 -279.203125 L 142.71875 -279.203125 L 142.71875 -29.953125 C 143 -19.972656 147.441406 -12.484375 156.046875 -7.484375 C 160.203125 -5.265625 164.640625 -4.15625 169.359375 -4.15625 L 174.765625 -4.15625 L 174.765625 0 L 83.640625 0 L 83.640625 -4.15625 L 89.046875 -4.15625 C 96.265625 -4.15625 102.4375 -6.648438 107.5625 -11.640625 C 112.695312 -16.640625 115.40625 -22.609375 115.6875 -29.546875 L 115.6875 -279.203125 L 28.71875 -279.203125 C 6.519531 -279.203125 -9.566406 -272.128906 -19.546875 -257.984375 C -24.816406 -250.765625 -27.453125 -243.203125 -27.453125 -235.296875 C -27.453125 -227.390625 -25.234375 -219.140625 -20.796875 -210.546875 Z M -24.125 -208.46875 "/></g></g></g><g fill="#000000" fill-opacity="0.502"><g transform="translate(1029.672171, 1354.001019)"><g><path d="M 331.625 -146.046875 C 331.625 -98.335938 318.796875 -61.097656 293.140625 -34.328125 C 267.484375 -7.554688 231.210938 5.828125 184.328125 5.828125 C 152.703125 5.828125 124.195312 -0.828125 98.8125 -14.140625 C 73.4375 -27.460938 53.742188 -45.632812 39.734375 -68.65625 C 25.722656 -91.675781 18.71875 -117.398438 18.71875 -145.828125 C 18.71875 -174.265625 25.648438 -199.992188 39.515625 -223.015625 C 53.390625 -246.046875 72.53125 -264.148438 96.9375 -277.328125 C 121.351562 -290.503906 148.539062 -297.09375 178.5 -297.09375 C 197.363281 -297.09375 216.570312 -294.523438 236.125 -289.390625 C 255.6875 -284.265625 271.988281 -277.398438 285.03125 -268.796875 L 293.34375 -210.125 L 289.59375 -210.125 C 283.769531 -233.425781 270.316406 -251.664062 249.234375 -264.84375 C 228.148438 -278.019531 204.710938 -284.609375 178.921875 -284.609375 C 142.023438 -284.609375 111.300781 -271.5 86.75 -245.28125 C 62.207031 -219.070312 49.9375 -186.132812 49.9375 -146.46875 C 49.9375 -106.800781 62.625 -73.582031 88 -46.8125 C 113.382812 -20.039062 146.601562 -6.65625 187.65625 -6.65625 C 228.707031 -6.65625 262.203125 -19.96875 288.140625 -46.59375 C 314.078125 -73.226562 327.046875 -109.707031 327.046875 -156.03125 L 331.203125 -156.03125 C 331.484375 -152.707031 331.625 -149.378906 331.625 -146.046875 Z M 331.625 -146.046875 "/></g></g></g><g fill="#000000" fill-opacity="0.502"><g transform="translate(1367.128747, 1354.001019)"><g><path d="M 303.328125 -4.15625 L 308.328125 -4.15625 L 308.328125 0 L 217.609375 0 L 217.609375 -4.15625 L 223.03125 -4.15625 C 229.957031 -4.15625 235.988281 -6.582031 241.125 -11.4375 C 246.257812 -16.289062 249.101562 -22.328125 249.65625 -29.546875 L 249.65625 -137.734375 L 88.625 -137.734375 L 88.625 -29.125 C 88.625 9.707031 79.191406 35.78125 60.328125 49.09375 C 51.734375 55.195312 40.640625 59.773438 27.046875 62.828125 L 24.96875 59.078125 C 37.445312 52.421875 46.664062 42.15625 52.625 28.28125 C 58.59375 14.414062 61.578125 -4.71875 61.578125 -29.125 L 61.578125 -261.3125 C 61.578125 -268.519531 58.941406 -274.617188 53.671875 -279.609375 C 48.398438 -284.609375 42.160156 -287.109375 34.953125 -287.109375 L 29.953125 -287.109375 L 29.953125 -291.265625 L 120.671875 -291.265625 L 120.671875 -287.109375 L 115.265625 -287.109375 C 108.046875 -287.109375 101.867188 -284.609375 96.734375 -279.609375 C 91.609375 -274.617188 88.90625 -268.519531 88.625 -261.3125 L 88.625 -150.203125 L 249.65625 -150.203125 L 249.65625 -253.8125 C 249.9375 -289.320312 257.84375 -314.007812 273.375 -327.875 C 282.800781 -336.195312 295.5625 -342.164062 311.65625 -345.78125 L 313.734375 -342.03125 C 301.253906 -335.375 291.960938 -325.109375 285.859375 -311.234375 C 279.753906 -297.367188 276.703125 -278.226562 276.703125 -253.8125 L 276.703125 -30.375 C 276.703125 -23.164062 279.265625 -16.992188 284.390625 -11.859375 C 289.523438 -6.722656 295.835938 -4.15625 303.328125 -4.15625 Z M 303.328125 -4.15625 "/></g></g></g><g fill="#ffffff" fill-opacity="1"><g transform="translate(175.501424, 1349.8381)"><g><path d="M 495.984375 -392.796875 C 497.929688 -392.796875 499.738281 -392.796875 501.40625 -392.796875 L 501.40625 -388.625 C 488.363281 -388.070312 476.015625 -385.019531 464.359375 -379.46875 C 452.710938 -373.925781 442.863281 -367.335938 434.8125 -359.703125 C 426.769531 -352.078125 419.285156 -342.859375 412.359375 -332.046875 C 401.265625 -314.847656 391.832031 -295.148438 384.0625 -272.953125 L 304.171875 -41.1875 C 298.617188 -23.71875 295.566406 -8.320312 295.015625 5 L 291.265625 5 L 206.390625 -232.59375 L 139.390625 -22.890625 C 129.410156 8.460938 113.320312 32.875 91.125 50.34375 C 75.039062 63.382812 57.007812 69.90625 37.03125 69.90625 C 30.101562 69.90625 22.753906 69.070312 14.984375 67.40625 L 15.8125 63.25 C 19.976562 64.082031 24.765625 64.5 30.171875 64.5 C 35.578125 64.5 42.785156 62.832031 51.796875 59.5 C 60.816406 56.175781 69.765625 50.210938 78.640625 41.609375 C 96.671875 24.128906 110.539062 2.210938 120.25 -24.140625 L 36.203125 -261.71875 C 32.878906 -270.039062 27.75 -276.351562 20.8125 -280.65625 C 13.875 -284.957031 6.800781 -287.109375 -0.40625 -287.109375 L -3.734375 -287.109375 L -3.734375 -291.265625 L 88.640625 -291.265625 L 88.640625 -287.109375 L 84.890625 -287.109375 C 79.066406 -287.109375 74.695312 -285.234375 71.78125 -281.484375 C 68.863281 -277.742188 67.40625 -274.207031 67.40625 -270.875 C 67.40625 -267.550781 67.820312 -264.5 68.65625 -261.71875 L 131.90625 -59.078125 L 209.296875 -297.921875 L 213.046875 -297.5 L 295.4375 -66.984375 L 357.015625 -272.953125 C 364.222656 -297.085938 375.316406 -318.863281 390.296875 -338.28125 C 418.035156 -374.625 453.265625 -392.796875 495.984375 -392.796875 Z M 495.984375 -392.796875 "/></g></g></g><g fill="#ffffff" fill-opacity="1"><g transform="translate(597.426098, 1349.8381)"><g><path d="M 133.984375 -4.15625 L 139.390625 -4.15625 L 139.390625 0 L 48.265625 0 L 48.265625 -4.15625 L 53.6875 -4.15625 C 60.894531 -4.15625 67.132812 -6.722656 72.40625 -11.859375 C 77.675781 -16.992188 80.3125 -23.164062 80.3125 -30.375 L 80.3125 -280.03125 L 35.796875 -277.53125 C 7.773438 -275.863281 -6.234375 -265.738281 -6.234375 -247.15625 C -6.234375 -239.664062 -3.804688 -233.285156 1.046875 -228.015625 C 5.898438 -222.742188 13.597656 -219.832031 24.140625 -219.28125 L 24.140625 -216.78125 C 20.253906 -215.945312 16.367188 -215.53125 12.484375 -215.53125 C 0.285156 -215.53125 -8.863281 -220.382812 -14.96875 -230.09375 C -18.582031 -235.644531 -20.390625 -241.75 -20.390625 -248.40625 C -20.390625 -271.988281 -2.492188 -285.71875 33.296875 -289.59375 C 33.566406 -289.59375 47.363281 -290.492188 74.6875 -292.296875 C 102.019531 -294.109375 123.585938 -296.539062 139.390625 -299.59375 L 140.234375 -295.421875 C 128.304688 -293.484375 119.84375 -289.460938 114.84375 -283.359375 C 109.851562 -277.253906 107.359375 -268.796875 107.359375 -257.984375 L 107.359375 -30.375 C 107.640625 -23.164062 110.34375 -16.992188 115.46875 -11.859375 C 120.601562 -6.722656 126.773438 -4.15625 133.984375 -4.15625 Z M 133.984375 -4.15625 "/></g></g></g><g fill="#ffffff" fill-opacity="1"><g transform="translate(777.597105, 1349.8381)"><g><path d="M -24.125 -208.46875 C -32.726562 -218.726562 -37.03125 -228.921875 -37.03125 -239.046875 C -37.03125 -249.171875 -34.671875 -257.90625 -29.953125 -265.25 C -25.234375 -272.601562 -17.601562 -278.847656 -7.0625 -283.984375 C 3.476562 -289.117188 15.40625 -291.6875 28.71875 -291.6875 L 199.3125 -291.6875 C 207.914062 -291.6875 217.414062 -292.515625 227.8125 -294.171875 C 238.21875 -295.835938 245.5 -297.503906 249.65625 -299.171875 L 249.65625 -246.75 L 245.5 -247.15625 L 245.5 -254.234375 C 245.5 -260.890625 243.140625 -266.644531 238.421875 -271.5 C 233.710938 -276.351562 228.164062 -278.921875 221.78125 -279.203125 L 142.71875 -279.203125 L 142.71875 -29.953125 C 143 -19.972656 147.441406 -12.484375 156.046875 -7.484375 C 160.203125 -5.265625 164.640625 -4.15625 169.359375 -4.15625 L 174.765625 -4.15625 L 174.765625 0 L 83.640625 0 L 83.640625 -4.15625 L 89.046875 -4.15625 C 96.265625 -4.15625 102.4375 -6.648438 107.5625 -11.640625 C 112.695312 -16.640625 115.40625 -22.609375 115.6875 -29.546875 L 115.6875 -279.203125 L 28.71875 -279.203125 C 6.519531 -279.203125 -9.566406 -272.128906 -19.546875 -257.984375 C -24.816406 -250.765625 -27.453125 -243.203125 -27.453125 -235.296875 C -27.453125 -227.390625 -25.234375 -219.140625 -20.796875 -210.546875 Z M -24.125 -208.46875 "/></g></g></g><g fill="#ffffff" fill-opacity="1"><g transform="translate(1024.343881, 1349.8381)"><g><path d="M 331.625 -146.046875 C 331.625 -98.335938 318.796875 -61.097656 293.140625 -34.328125 C 267.484375 -7.554688 231.210938 5.828125 184.328125 5.828125 C 152.703125 5.828125 124.195312 -0.828125 98.8125 -14.140625 C 73.4375 -27.460938 53.742188 -45.632812 39.734375 -68.65625 C 25.722656 -91.675781 18.71875 -117.398438 18.71875 -145.828125 C 18.71875 -174.265625 25.648438 -199.992188 39.515625 -223.015625 C 53.390625 -246.046875 72.53125 -264.148438 96.9375 -277.328125 C 121.351562 -290.503906 148.539062 -297.09375 178.5 -297.09375 C 197.363281 -297.09375 216.570312 -294.523438 236.125 -289.390625 C 255.6875 -284.265625 271.988281 -277.398438 285.03125 -268.796875 L 293.34375 -210.125 L 289.59375 -210.125 C 283.769531 -233.425781 270.316406 -251.664062 249.234375 -264.84375 C 228.148438 -278.019531 204.710938 -284.609375 178.921875 -284.609375 C 142.023438 -284.609375 111.300781 -271.5 86.75 -245.28125 C 62.207031 -219.070312 49.9375 -186.132812 49.9375 -146.46875 C 49.9375 -106.800781 62.625 -73.582031 88 -46.8125 C 113.382812 -20.039062 146.601562 -6.65625 187.65625 -6.65625 C 228.707031 -6.65625 262.203125 -19.96875 288.140625 -46.59375 C 314.078125 -73.226562 327.046875 -109.707031 327.046875 -156.03125 L 331.203125 -156.03125 C 331.484375 -152.707031 331.625 -149.378906 331.625 -146.046875 Z M 331.625 -146.046875 "/></g></g></g><g fill="#ffffff" fill-opacity="1"><g transform="translate(1361.800457, 1349.8381)"><g><path d="M 303.328125 -4.15625 L 308.328125 -4.15625 L 308.328125 0 L 217.609375 0 L 217.609375 -4.15625 L 223.03125 -4.15625 C 229.957031 -4.15625 235.988281 -6.582031 241.125 -11.4375 C 246.257812 -16.289062 249.101562 -22.328125 249.65625 -29.546875 L 249.65625 -137.734375 L 88.625 -137.734375 L 88.625 -29.125 C 88.625 9.707031 79.191406 35.78125 60.328125 49.09375 C 51.734375 55.195312 40.640625 59.773438 27.046875 62.828125 L 24.96875 59.078125 C 37.445312 52.421875 46.664062 42.15625 52.625 28.28125 C 58.59375 14.414062 61.578125 -4.71875 61.578125 -29.125 L 61.578125 -261.3125 C 61.578125 -268.519531 58.941406 -274.617188 53.671875 -279.609375 C 48.398438 -284.609375 42.160156 -287.109375 34.953125 -287.109375 L 29.953125 -287.109375 L 29.953125 -291.265625 L 120.671875 -291.265625 L 120.671875 -287.109375 L 115.265625 -287.109375 C 108.046875 -287.109375 101.867188 -284.609375 96.734375 -279.609375 C 91.609375 -274.617188 88.90625 -268.519531 88.625 -261.3125 L 88.625 -150.203125 L 249.65625 -150.203125 L 249.65625 -253.8125 C 249.9375 -289.320312 257.84375 -314.007812 273.375 -327.875 C 282.800781 -336.195312 295.5625 -342.164062 311.65625 -345.78125 L 313.734375 -342.03125 C 301.253906 -335.375 291.960938 -325.109375 285.859375 -311.234375 C 279.753906 -297.367188 276.703125 -278.226562 276.703125 -253.8125 L 276.703125 -30.375 C 276.703125 -23.164062 279.265625 -16.992188 284.390625 -11.859375 C 289.523438 -6.722656 295.835938 -4.15625 303.328125 -4.15625 Z M 303.328125 -4.15625 "/></g></g></g></svg>